<svg xmlns="http://www.w3.org/2000/svg" xmlns:xlink="http://www.w3.org/1999/xlink" width="135" height="40" viewBox="0 0 135 40">
  <defs>
    <clipPath id="clip-path">
      <rect id="矩形_119" data-name="矩形 119" width="135" height="39.999" fill="none"/>
    </clipPath>
    <clipPath id="clip-path-2">
      <rect id="矩形_121" data-name="矩形 121" width="131.58" height="36.546" rx="6.912" fill="none"/>
    </clipPath>
    <linearGradient id="linear-gradient" x1="-0.026" y1="1.095" x2="-0.021" y2="1.095" gradientUnits="objectBoundingBox">
      <stop offset="0" stop-color="#00cde6"/>
      <stop offset="0.323" stop-color="#0fd6ec"/>
      <stop offset="0.947" stop-color="#38edfd"/>
      <stop offset="1" stop-color="#3cf0ff"/>
    </linearGradient>
  </defs>
  <g id="组_241" data-name="组 241" transform="translate(0 0)">
    <g id="组_236" data-name="组 236" transform="translate(0 0)">
      <g id="组_235" data-name="组 235" clip-path="url(#clip-path)">
        <path id="路径_273" data-name="路径 273" d="M126.645,41.337H4.934A4.973,4.973,0,0,1,0,36.353V9.775A4.973,4.973,0,0,1,4.934,4.791H126.645a4.974,4.974,0,0,1,4.934,4.984V36.353a4.974,4.974,0,0,1-4.934,4.984" transform="translate(0 -1.337)" fill="#5f00ad"/>
      </g>
    </g>
    <g id="组_238" data-name="组 238" transform="translate(3.42 0)">
      <g id="组_237" data-name="组 237" clip-path="url(#clip-path-2)">
        <rect id="矩形_120" data-name="矩形 120" width="131.58" height="36.546" transform="translate(0 0)" fill="url(#linear-gradient)"/>
      </g>
    </g>
    <g id="组_240" data-name="组 240" transform="translate(0 0)">
      <g id="组_239" data-name="组 239" clip-path="url(#clip-path)">
        <path id="路径_274" data-name="路径 274" d="M88.629,27.942v1.8H72.462v-1.8H77.2Q76.4,23.1,75.253,18.61h-2v-1.8H79.6a20.713,20.713,0,0,0-.884-2.266L80.7,14.22c.247.749.495,1.624.742,2.587h6.4v1.8h-2.05a78.727,78.727,0,0,1-2.137,9.333ZM77.179,18.61c.671,2.8,1.29,5.907,1.838,9.333h2.7a73.583,73.583,0,0,0,2.156-9.333Z" transform="translate(-20.732 -3.967)" fill="#8700f0"/>
        <path id="路径_275" data-name="路径 275" d="M97.118,28.575a.985.985,0,0,0,.777-.946V14.888h7.033v8.78H99.7v4.3c1.236-.357,2.35-.75,3.375-1.142-.266-.464-.53-.911-.812-1.356l1.4-.893a38.612,38.612,0,0,1,2.491,4.39l-1.431,1.017c-.248-.535-.495-1.071-.778-1.606a44.54,44.54,0,0,1-6.184,1.981Zm6.078-12.01H99.7v1.8h3.5Zm-3.5,5.372h3.5V20.027H99.7Zm9.806,6.478-.495-1.8,1.219.071a.667.667,0,0,0,.76-.732v-9.28H108.5V30.805h-1.838V14.924h6.166V26.38a1.778,1.778,0,0,1-1.978,2.034Z" transform="translate(-27.786 -4.154)" fill="#8700f0"/>
        <path id="路径_276" data-name="路径 276" d="M126.458,14.171v3.408h3.517q0,8.887-.265,10.975c-.177,1.3-1.06,1.963-2.615,1.963-.283,0-.76-.036-1.4-.107l-.46-1.7a13.36,13.36,0,0,0,1.555.107c.671,0,1.078-.393,1.2-1.142.089-.8.141-3.57.177-8.28h-1.715c-.106,5.175-1.271,8.958-3.462,11.385l-1.4-1.249q2.888-3.186,3.021-10.136h-2.615V17.579h2.615V14.171Zm10.9,16.2h-1.8V29.286H133v1.089h-1.767V16.6h6.132Zm-1.8-12.011H133V27.5h2.562Z" transform="translate(-34.79 -3.954)" fill="#8700f0"/>
        <path id="路径_277" data-name="路径 277" d="M151.616,16.659v-1.82h3.941a21.679,21.679,0,0,0,7.244,14.2l-1.06,1.606A23.041,23.041,0,0,1,154.814,19.6a19.674,19.674,0,0,1-7.156,11.01l-1.131-1.606a20.255,20.255,0,0,0,7.527-12.349Z" transform="translate(-41.922 -4.14)" fill="#8700f0"/>
        <path id="路径_278" data-name="路径 278" d="M38.092,17.089a11.727,11.727,0,0,1-1.407-.185,10.721,10.721,0,0,1,1.024-1.224c.61-.542,1.276-1.02,1.925-1.514a2.47,2.47,0,0,0,.8-2.372,2.137,2.137,0,0,0-3.012-1.285c-1.648.907-3.332,1.747-5,2.612-1.541.8-3.128,1.514-4.609,2.412a5.452,5.452,0,0,1-3.434.821c-.361-.032-.725-.005-1.088-.005-1.043,0-2.087-.006-3.13,0-.609.006-.821.187-.822.7q-.005,6.412,0,12.825c0,.513.224.717.747.717h1.568a1.885,1.885,0,0,1-.118.3c-.316.479-.662.941-.942,1.441a.932.932,0,0,0-.051.684c.226.635.908.544,1.26-.035.363-.6.766-1.173,1.149-1.754.054.024.091.027.1.048.4.606.8,1.216,1.2,1.822a.7.7,0,0,0,.968.249.722.722,0,0,0,.163-1.016c-.348-.545-.7-1.087-1.117-1.731a21.64,21.64,0,0,1,2.526.019c1.014.123,2.007.407,3.016.586a12.642,12.642,0,0,0,2.237.288c1.679-.006,3.357-.1,5.037-.167a13.882,13.882,0,0,0,1.7-.1,1.91,1.91,0,0,0,1.255-.733,2.53,2.53,0,0,0,.366-2.508c.025-.032.039-.068.062-.078a2.433,2.433,0,0,0,.84-3.583.257.257,0,0,1-.041-.226,2.941,2.941,0,0,0,.392-2.41h.487c1.693,0,3.387-.014,5.079.005a2.3,2.3,0,0,0,2.48-1.925,2.154,2.154,0,0,0-1.676-2.623c-.067-.014-.134-.025-.2-.035H42.353c-1.421,0-2.841,0-4.261-.01m-17.376.6h1.576v11.5H20.716Zm14.606.438c1.408.128,2.816.3,4.227.331,2.629.053,5.259.021,7.889.01a.824.824,0,0,1,.9.5.984.984,0,0,1-.383,1.157,1.565,1.565,0,0,1-.765.17c-3.158.011-6.317.007-9.476.007-.136,0-.272,0-.408,0-.488.02-.726.218-.73.6a.765.765,0,0,0,.732.763c.695.02,1.391,0,2.086.007.719,0,.988.235.99.84a.929.929,0,0,1-1.017.989c-.68.009-1.361,0-2.04.005-.521.007-.754.208-.75.616a.766.766,0,0,0,.79.751c.695.014,1.391.022,2.085,0,.437-.014.79.109.907.545a.935.935,0,0,1-.378,1.115,1.422,1.422,0,0,1-.674.17c-.68.022-1.36.015-2.04.006-.489-.007-.788.224-.782.647s.329.655.825.669a7.657,7.657,0,0,1,1.333.093c.459.1.657.541.56,1.064a.892.892,0,0,1-.827.673c-1.406.057-2.813.123-4.219.181-.87.035-1.742.118-2.607.075a9.948,9.948,0,0,1-2.033-.355,15.63,15.63,0,0,0-4.689-.485c-.36.015-.721,0-1.135,0V17.723a17.1,17.1,0,0,1,2.063.017,3.353,3.353,0,0,0,2-.642c2.263-1.163,4.513-2.352,6.768-3.533,1.158-.606,2.313-1.221,3.474-1.823a.722.722,0,0,1,1.019.3.782.782,0,0,1-.261,1.052,23.651,23.651,0,0,0-2.2,1.831A19.1,19.1,0,0,0,34.849,17.1a.65.65,0,0,0,.473,1.024" transform="translate(-5.531 -2.864)" fill="#8700f0"/>
        <path id="路径_279" data-name="路径 279" d="M40.5,13.63a.781.781,0,0,0,.26-1.052.723.723,0,0,0-1.019-.3c-1.161.6-2.315,1.217-3.473,1.824-2.255,1.181-4.5,2.37-6.767,3.533a3.36,3.36,0,0,1-2,.642,16.956,16.956,0,0,0-2.063-.017V29.808c.414,0,.775.013,1.136,0a15.628,15.628,0,0,1,4.688.485,9.941,9.941,0,0,0,2.033.355c.865.042,1.738-.04,2.607-.076,1.406-.058,2.813-.124,4.22-.181a.889.889,0,0,0,.825-.673c.1-.523-.1-.968-.56-1.064a7.636,7.636,0,0,0-1.331-.093c-.5-.014-.82-.259-.826-.669s.294-.653.782-.647c.68.01,1.361.016,2.04-.006a1.42,1.42,0,0,0,.675-.17.937.937,0,0,0,.378-1.115c-.119-.435-.471-.56-.908-.544-.695.023-1.391.015-2.086,0a.767.767,0,0,1-.789-.752c0-.407.228-.609.75-.616.68-.009,1.36.005,2.04-.005a.928.928,0,0,0,1.018-.989c0-.6-.272-.836-.99-.84-.7,0-1.391.013-2.087-.007a.764.764,0,0,1-.73-.762c0-.385.24-.583.729-.6.135-.005.272,0,.408,0,3.158,0,6.317,0,9.476-.007a1.561,1.561,0,0,0,.765-.17.982.982,0,0,0,.382-1.157.824.824,0,0,0-.9-.5c-2.629.011-5.26.043-7.889-.009-1.411-.029-2.82-.2-4.228-.332a.649.649,0,0,1-.472-1.024,18.8,18.8,0,0,1,1.71-2.172,23.445,23.445,0,0,1,2.2-1.831" transform="translate(-7.28 -3.396)" fill="#fff"/>
        <rect id="矩形_122" data-name="矩形 122" width="1.576" height="11.497" transform="translate(15.185 14.823)" fill="#00cce5"/>
      </g>
    </g>
  </g>
</svg>
