<svg xmlns="http://www.w3.org/2000/svg" width="55.014" height="62.121" viewBox="0 0 55.014 62.121">
  <g id="组_269" data-name="组 269" transform="translate(16384.215 -3445.826)">
    <path id="路径_283" data-name="路径 283" d="M38.011,27.854c.543-2.03,1.2-4.566,1.62-6.625a9.077,9.077,0,0,0,.244-1.962,8.613,8.613,0,0,0-.355-2.041c-.529-1.987-1.191-3.935-1.853-5.882-.7-2.064-1.508-4.15-2.15-6.233a10.4,10.4,0,0,0-.493-1.494,1.94,1.94,0,0,0-1.1-1.06,1.837,1.837,0,0,0-2.049,1.105,4.622,4.622,0,0,0-.214,2.5,22.1,22.1,0,0,0,1.434,5.624c.908,2.261-.011,5.044.267,7.465.427,3.723-1.707,7.571-4.228,10.344a26.576,26.576,0,0,1-3.615-3.6c-1.064-1.305-2.168-2.824-3.827-3.115a6.242,6.242,0,0,0-1.776.031l-4,.453a6.261,6.261,0,0,0-2.293.56,6.249,6.249,0,0,0-1.3,1.038,38.613,38.613,0,0,0-3.6,3.761,1.045,1.045,0,0,0-.305.683.876.876,0,0,0,.195.443,3.334,3.334,0,0,0,3.751.864,9.77,9.77,0,0,0,3.328-2.38,8.167,8.167,0,0,0,4.108-.078,17.216,17.216,0,0,0,3.662,3.321c1.337.916.551,3.425-.333,4.783a6.345,6.345,0,0,1-3.968,2.59,4.172,4.172,0,0,1-2.851-.223A5.592,5.592,0,0,1,14.683,37.2a21,21,0,0,1-3.418-6.271" transform="translate(-16389.768 3444.373)" fill="none" stroke="#00cde6" stroke-linecap="round" stroke-linejoin="round" stroke-width="2"/>
    <path id="路径_284" data-name="路径 284" d="M4.844,84.1a1.332,1.332,0,0,0-1.863.3,3.065,3.065,0,0,0-.475,2.027,19.391,19.391,0,0,1,.152,3.8,3.263,3.263,0,0,0-.091,1.188,2.364,2.364,0,0,0,.3.675,47.32,47.32,0,0,0,3.1,4.686,11.3,11.3,0,0,1,1.056,1.563c.28.544.46,1.135.743,1.677a9.883,9.883,0,0,0,2.183,2.543,7.38,7.38,0,0,0,1.517,3.5,23.518,23.518,0,0,0,2.476,2.785q1.621,1.659,3.17,3.387a18.177,18.177,0,0,1,2.333,3.044,10.857,10.857,0,0,1,.982,2.338" transform="translate(-16385.715 3387.888)" fill="none" stroke="#00cde6" stroke-linecap="round" stroke-linejoin="round" stroke-width="2"/>
    <path id="路径_285" data-name="路径 285" d="M109.341,104.42c.032-.419.056-.838.054-1.258a19.694,19.694,0,0,0-.562-3.945c2.117-5.438,1.36-12.16,3.929-17.4a28.88,28.88,0,0,1,1.506-2.6l1.835-2.929c1.843-2.942,5.386-4.551,7.958-6.883a39.276,39.276,0,0,1,3.522-3.278,3.227,3.227,0,0,0,1.221-1.156A1.814,1.814,0,0,0,127.47,62.7a4.2,4.2,0,0,0-2.884.529c-2.485,1.227-4.531,3.178-6.88,4.648-2.9,1.819-6.395,3.011-8.375,5.808" transform="translate(-16459.129 3402.453)" fill="none" stroke="#00cde6" stroke-linecap="round" stroke-linejoin="round" stroke-width="2"/>
    <path id="路径_286" data-name="路径 286" d="M106.159,38.493q.7-1.589,1.547-3.108a3.25,3.25,0,0,0,.319-.689,84.521,84.521,0,0,0,1.758-9.332,20.641,20.641,0,0,0,.281-2.249c.063-1.224-.092-2.459.079-3.672A9.316,9.316,0,0,0,110.322,18a1.657,1.657,0,0,0-.553-1.3,1.9,1.9,0,0,0-.706-.306,2.149,2.149,0,0,0-1.463.051,2.35,2.35,0,0,0-.966,1.129,18.163,18.163,0,0,0-1.252,3.85l-2.647,10.82c-.426,1.741-1.718,3.156-2.687,4.664a7.27,7.27,0,0,1-1.68,1.649" transform="translate(-16451.824 3434.914)" fill="none" stroke="#00cde6" stroke-linecap="round" stroke-linejoin="round" stroke-width="2"/>
  </g>
</svg>
