<svg xmlns="http://www.w3.org/2000/svg" width="334" height="737" viewBox="0 0 334 737">
  <g id="组_277" data-name="组 277" transform="translate(-7062.139 -478.764)">
    <path id="路径_307" data-name="路径 307" d="M319.822,739.431H44.147A16.791,16.791,0,0,1,27.54,722.557V49.362s-10.447,1-21.111-20.775c0,0,15.463,12.4,21.111-5.282A16.791,16.791,0,0,1,44.147,6.431H319.822A16.791,16.791,0,0,1,336.429,23.3V722.557a16.791,16.791,0,0,1-16.607,16.874" transform="translate(7057.709 474.333)" fill="#fff"/>
    <path id="路径_308" data-name="路径 308" d="M319.822,739.431H44.147A16.791,16.791,0,0,1,27.54,722.557V49.362s-10.447,1-21.111-20.775c0,0,15.463,12.4,21.111-5.282A16.791,16.791,0,0,1,44.147,6.431H319.822A16.791,16.791,0,0,1,336.429,23.3V722.557A16.791,16.791,0,0,1,319.822,739.431Z" transform="translate(7057.709 474.333)" fill="none" stroke="#00cde6" stroke-linecap="round" stroke-linejoin="round" stroke-width="4"/>
  </g>
</svg>
