<svg xmlns="http://www.w3.org/2000/svg" xmlns:xlink="http://www.w3.org/1999/xlink" width="137" height="40" viewBox="0 0 137 40">
  <defs>
    <clipPath id="clip-path">
      <rect id="矩形_61" data-name="矩形 61" width="136.901" height="40" fill="none"/>
    </clipPath>
    <clipPath id="clip-path-2">
      <path id="矩形_63" data-name="矩形 63" d="M6.971,0H126.542a6.971,6.971,0,0,1,6.971,6.971V29.95a6.971,6.971,0,0,1-6.971,6.971H6.97A6.97,6.97,0,0,1,0,29.951V6.971A6.971,6.971,0,0,1,6.971,0Z" fill="none"/>
    </clipPath>
    <linearGradient id="linear-gradient" x1="-0.026" y1="1.095" x2="-0.021" y2="1.095" gradientUnits="objectBoundingBox">
      <stop offset="0" stop-color="#00cde6"/>
      <stop offset="0.323" stop-color="#0fd6ec"/>
      <stop offset="0.947" stop-color="#38edfd"/>
      <stop offset="1" stop-color="#3cf0ff"/>
    </linearGradient>
  </defs>
  <g id="组_136" data-name="组 136" transform="translate(0 0)">
    <g id="组_131" data-name="组 131" transform="translate(0 0)">
      <g id="组_130" data-name="组 130" clip-path="url(#clip-path)">
        <path id="路径_157" data-name="路径 157" d="M128.522,41.75H5.007A5.036,5.036,0,0,1,0,36.716V9.865A5.036,5.036,0,0,1,5.007,4.831H128.522a5.035,5.035,0,0,1,5.007,5.034v26.85a5.035,5.035,0,0,1-5.007,5.034" transform="translate(0 -1.342)" fill="#a03eff"/>
      </g>
    </g>
    <g id="组_133" data-name="组 133" transform="translate(3.487 0)">
      <g id="组_132" data-name="组 132" clip-path="url(#clip-path-2)">
        <rect id="矩形_62" data-name="矩形 62" width="133.513" height="36.921" transform="translate(0)" fill="url(#linear-gradient)"/>
      </g>
    </g>
    <g id="组_135" data-name="组 135" transform="translate(0 0)">
      <g id="组_134" data-name="组 134" clip-path="url(#clip-path)">
        <path id="路径_158" data-name="路径 158" d="M47.047,21.724a12.528,12.528,0,1,1-12.528-12.6,12.563,12.563,0,0,1,12.528,12.6" transform="translate(-6.194 -2.536)" fill="#fff"/>
        <path id="路径_159" data-name="路径 159" d="M52.48,37.6v.022h0v-.022h0" transform="translate(-14.782 -10.444)" fill="#8700f0"/>
        <path id="路径_160" data-name="路径 160" d="M29.381,40.316c.041.022.083.042.124.064-.057-.032-.11-.069-.167-.1a.336.336,0,0,0,.042.038" transform="translate(-8.264 -11.189)" fill="#8700f0"/>
        <path id="路径_161" data-name="路径 161" d="M48.624,40.293a.368.368,0,0,0,.091-.082c-.194.113-.391.22-.59.325.165-.083.335-.155.5-.243" transform="translate(-13.556 -11.171)" fill="#8700f0"/>
        <path id="路径_162" data-name="路径 162" d="M45.588,41.406a13.987,13.987,0,0,1-2.4.745,12.449,12.449,0,0,0,2.4-.745" transform="translate(-12.164 -11.503)" fill="#8700f0"/>
        <path id="路径_163" data-name="路径 163" d="M41.889,42.6c.159-.02.311-.06.468-.087-.355.068-.713.125-1.077.165.2-.027.407-.054.609-.079" transform="translate(-11.627 -11.81)" fill="#8700f0"/>
        <path id="路径_164" data-name="路径 164" d="M31.551,41.371a14.033,14.033,0,0,0,5.187,1.13,10.9,10.9,0,0,0,1.624-.118c-.46.045-.926.071-1.4.071a14.048,14.048,0,0,1-5.414-1.083" transform="translate(-8.887 -11.493)" fill="#8700f0"/>
        <path id="路径_165" data-name="路径 165" d="M43.571,32.758a3.189,3.189,0,0,0-3.426-3.411c-1.3.007-2.6,0-3.906,0-1.245,0-2.489-.01-3.733.006a5.445,5.445,0,0,0-1.227.127,2.815,2.815,0,0,0-2.22,2.567c-.094,1.591-.02,3.192,0,4.789a.621.621,0,0,0,.185.4c.057.032.11.07.167.1.1.054.2.1.3.157.25.131.506.254.765.37.119.054.236.11.356.161a14.051,14.051,0,0,0,5.414,1.083c.472,0,.937-.026,1.4-.071l.176-.022c.363-.04.722-.1,1.077-.165.1-.017.195-.035.292-.054a14.051,14.051,0,0,0,2.4-.745c.09-.038.18-.072.269-.111.3-.131.585-.282.876-.427.2-.105.4-.212.59-.325a.964.964,0,0,0,.225-.566c.03-1.288.019-2.578.014-3.868" transform="translate(-8.172 -8.152)" fill="#8700f0"/>
        <path id="路径_166" data-name="路径 166" d="M47.781,40.661c-.291.145-.58.3-.876.427.3-.13.59-.275.876-.427" transform="translate(-13.212 -11.296)" fill="#8700f0"/>
        <path id="路径_167" data-name="路径 167" d="M37.153,14.042A4.676,4.676,0,0,0,32.439,18.8a4.8,4.8,0,0,0,9.6.074,4.708,4.708,0,0,0-4.886-4.832" transform="translate(-9.137 -3.9)" fill="#8700f0"/>
        <path id="路径_168" data-name="路径 168" d="M62.655,23.263a5.939,5.939,0,1,1-5.939-5.971,5.955,5.955,0,0,1,5.939,5.971" transform="translate(-14.303 -4.804)" fill="#fff"/>
        <ellipse id="椭圆_1" data-name="椭圆 1" cx="5.939" cy="5.971" rx="5.939" ry="5.971" transform="translate(36.475 12.488)" fill="none" stroke="#00cce5" stroke-width="1.394"/>
        <rect id="矩形_64" data-name="矩形 64" width="1.478" height="7.62" transform="translate(41.741 14.649)" fill="#8700f0"/>
        <rect id="矩形_65" data-name="矩形 65" width="7.579" height="1.486" transform="translate(38.69 17.716)" fill="#8700f0"/>
        <path id="路径_169" data-name="路径 169" d="M78.492,14.735v3.4h3.521q0,8.857-.266,10.939c-.177,1.3-1.062,1.956-2.618,1.956-.283,0-.761-.035-1.4-.107l-.46-1.689a13.494,13.494,0,0,0,1.557.106,1.164,1.164,0,0,0,1.2-1.138c.088-.8.142-3.557.177-8.253H78.492c-.106,5.158-1.274,8.929-3.467,11.347l-1.4-1.245q2.892-3.174,3.025-10.1H74.034V18.132h2.618v-3.4Zm10.915,16.15H87.6V29.8H85.038v1.085H83.268V17.154h6.139ZM87.6,18.914H85.038v9.106H87.6Z" transform="translate(-20.739 -4.094)" fill="#8700f0"/>
        <path id="路径_170" data-name="路径 170" d="M103.525,17.214V15.4h3.945a21.581,21.581,0,0,0,7.253,14.158l-1.062,1.6a22.955,22.955,0,0,1-6.934-11.01,19.611,19.611,0,0,1-7.165,10.974l-1.132-1.6a20.172,20.172,0,0,0,7.536-12.309Z" transform="translate(-27.725 -4.278)" fill="#8700f0"/>
        <path id="路径_171" data-name="路径 171" d="M127.772,14.642c-.195,1.138-.389,2.188-.566,3.165h2.9v1.014a18.95,18.95,0,0,1-1.575,7.221,27.5,27.5,0,0,1,2.317,2.01l-1.256,1.458c-.548-.569-1.2-1.174-1.946-1.814a13.544,13.544,0,0,1-3.166,3.5l-1.274-1.583a11.94,11.94,0,0,0,2.99-3.131Q125,25.5,123.6,24.46c.513-1.494.973-3.113,1.4-4.855h-1.628v-1.8h2.017c.212-1.085.407-2.2.584-3.344Zm.53,4.962h-1.468a35.583,35.583,0,0,1-1.221,4.286c.514.355.991.693,1.433,1.031A15.941,15.941,0,0,0,128.3,19.6m5.927,2.276V19.925a21.454,21.454,0,0,0,2.495-2.775h-5.767V15.336h7.89V17.15a25.882,25.882,0,0,1-2.76,3.344v1.387h3.379V23.7h-3.379v5.1c0,1.387-.531,2.081-1.557,2.081h-2.653L131.4,29.12c.708.018,1.5.036,2.371.036.3,0,.46-.3.46-.908V23.7h-3.768V21.881Z" transform="translate(-34.704 -4.018)" fill="#8700f0"/>
        <path id="路径_172" data-name="路径 172" d="M152.965,16.926c.088-.729.177-1.476.248-2.24h1.857c-.07.782-.159,1.529-.247,2.24h8.951v1.815h-9.217c-.124.747-.248,1.458-.389,2.134h7.943v1.618a11.993,11.993,0,0,1-3.061,4.785,15.649,15.649,0,0,0,4.989,2.152l-.938,1.69a16.032,16.032,0,0,1-5.5-2.615,19.947,19.947,0,0,1-5.36,2.7l-.955-1.779a17.129,17.129,0,0,0,4.971-2.134,10.513,10.513,0,0,1-2.565-4.429c-.177.641-.371,1.228-.566,1.761a19.065,19.065,0,0,1-4.175,6.386l-1.185-1.548a17.031,17.031,0,0,0,3.68-5.656,30.226,30.226,0,0,0,1.256-5.069h-4.4V16.926Zm4.723,9.249a9.5,9.5,0,0,0,2.495-3.575h-4.865a9.433,9.433,0,0,0,2.37,3.575" transform="translate(-41.621 -4.08)" fill="#8700f0"/>
      </g>
    </g>
  </g>
</svg>
