<svg id="组_234" data-name="组 234" xmlns="http://www.w3.org/2000/svg" xmlns:xlink="http://www.w3.org/1999/xlink" width="135" height="40" viewBox="0 0 135 40">
  <defs>
    <clipPath id="clip-path">
      <rect id="矩形_115" data-name="矩形 115" width="135" height="40" fill="none"/>
    </clipPath>
    <clipPath id="clip-path-2">
      <path id="矩形_117" data-name="矩形 117" d="M6.971,0H123.2a6.971,6.971,0,0,1,6.971,6.971V28.2a6.971,6.971,0,0,1-6.971,6.971H6.97A6.97,6.97,0,0,1,0,28.2V6.971A6.971,6.971,0,0,1,6.971,0Z" fill="none"/>
    </clipPath>
    <linearGradient id="linear-gradient" x1="-0.026" y1="1.095" x2="-0.021" y2="1.095" gradientUnits="objectBoundingBox">
      <stop offset="0" stop-color="#00cde6"/>
      <stop offset="0.323" stop-color="#0fd6ec"/>
      <stop offset="0.947" stop-color="#38edfd"/>
      <stop offset="1" stop-color="#3cf0ff"/>
    </linearGradient>
  </defs>
  <g id="组_229" data-name="组 229" transform="translate(0 0)">
    <g id="组_228" data-name="组 228" clip-path="url(#clip-path)">
      <path id="路径_259" data-name="路径 259" d="M126.646,41.377H4.934A4.974,4.974,0,0,1,0,36.394V9.815A4.974,4.974,0,0,1,4.934,4.831H126.646a4.973,4.973,0,0,1,4.934,4.984V36.394a4.973,4.973,0,0,1-4.934,4.984" transform="translate(0 -1.377)" fill="#5f00ad"/>
    </g>
  </g>
  <g id="组_231" data-name="组 231" transform="translate(4.832 0)">
    <g id="组_230" data-name="组 230" clip-path="url(#clip-path-2)">
      <rect id="矩形_116" data-name="矩形 116" width="130.168" height="35.168" transform="translate(0)" fill="url(#linear-gradient)"/>
    </g>
  </g>
  <g id="组_233" data-name="组 233" transform="translate(0 0)">
    <g id="组_232" data-name="组 232" clip-path="url(#clip-path)">
      <path id="路径_260" data-name="路径 260" d="M25.953,26.205c0,.789-.016,1.579,0,2.367.018.706-.442.794-.915.678a1.442,1.442,0,0,1-1.09-1.408c-.007-1.106-.017-2.213,0-3.319a1.419,1.419,0,0,1,1.421-1.4.515.515,0,0,1,.574.581c0,.834,0,1.669,0,2.5" transform="translate(-6.995 -6.592)" fill="#fff"/>
      <path id="路径_261" data-name="路径 261" d="M55.669,26.191c0-.771.024-1.543-.006-2.313-.036-.91.467-.845,1.014-.656a1.455,1.455,0,0,1,.993,1.5q.022,1.5,0,2.994a1.513,1.513,0,0,1-1.111,1.5,1.235,1.235,0,0,1-.575.029c-.249-.057-.316-.282-.316-.527,0-.844,0-1.688,0-2.531" transform="translate(-16.262 -6.587)" fill="#fff"/>
      <path id="路径_262" data-name="路径 262" d="M44.968,40.41c-.34,0-.682-.019-1.021.005a.675.675,0,0,1-.654-.664.6.6,0,0,1,.581-.652c.537-.028,1.075-.027,1.612-.016a2.993,2.993,0,0,1,.808.1.6.6,0,0,1,.335.685.711.711,0,0,1-.585.539c-.358.01-.716,0-1.075,0Z" transform="translate(-12.648 -11.14)" fill="#fff"/>
      <path id="路径_263" data-name="路径 263" d="M36.055,27.5c0-.662-.018-1.324,0-1.985a.725.725,0,0,0-.795-.793,2.091,2.091,0,0,1-1.167-.136,1.4,1.4,0,0,1-.824-1.259c-.008-1.972-.038-3.946,0-5.919A1.339,1.339,0,0,1,34.42,16.18a3.194,3.194,0,0,1,.482-.032q4,0,8,0a1.515,1.515,0,0,1,1.633,1.643c0,1.759-.011,3.518,0,5.277a1.571,1.571,0,0,1-1.647,1.656c-1.184-.037-2.369,0-3.554-.013a1,1,0,0,0-.779.322c-.813.831-1.639,1.648-2.46,2.471a.03.03,0,0,0-.042-.007m2.8-7.89a.867.867,0,0,0-.929.919.922.922,0,0,0,.9.978.963.963,0,0,0,.993-1.057.9.9,0,0,0-.963-.839m-4.058.9a.962.962,0,0,0,.878,1,1.009,1.009,0,0,0,1.014-.937A.947.947,0,0,0,35.8,19.6c-.629.024-1,.337-1,.909m7.231-.9a.869.869,0,0,0-.968.932.951.951,0,0,0,.938.971,1.03,1.03,0,0,0,.984-.98.927.927,0,0,0-.953-.922" transform="translate(-9.714 -4.603)" fill="#fff"/>
      <path id="路径_264" data-name="路径 264" d="M47.514,25.327c0,.49,0,.98-.008,1.469A3.956,3.956,0,0,1,45.5,30.284a3.669,3.669,0,0,1-1.913.531c-.575,0-1.15.007-1.724,0a.31.31,0,0,0-.33.193,1.912,1.912,0,0,1-1.8,1.127c-.674.006-1.347-.006-2.021,0A1.952,1.952,0,0,1,35.863,30.6a1.98,1.98,0,0,1,1.5-2.383,4.072,4.072,0,0,1,.912-.041c.573,0,1.15-.014,1.72.036a1.843,1.843,0,0,1,1.582,1.145.259.259,0,0,0,.176.14,19.54,19.54,0,0,0,2.046,0,2.634,2.634,0,0,0,2.358-2.257c.008-.087.052-.172.052-.259.006-.47,0-.942,0-1.421a1.793,1.793,0,0,1-1.569-1.315,1.949,1.949,0,0,1-.063-.553c0-1.7.02-3.394-.013-5.089a1.813,1.813,0,0,1,1.256-1.75c.349-.1.387-.174.333-.54a12.815,12.815,0,0,0-.592-2.562A10.374,10.374,0,0,0,43.8,10.675a10.816,10.816,0,0,0-2.487-2.24,9.69,9.69,0,0,0-3.348-1.4A14.134,14.134,0,0,0,36.14,6.82a10.416,10.416,0,0,0-1.643,0,9.771,9.771,0,0,0-2.733.668,10.712,10.712,0,0,0-5.759,5.524,9.454,9.454,0,0,0-.817,2.782c-.034.273-.074.545-.108.818-.018.139.03.2.188.222a1.689,1.689,0,0,1,1.375,1.376,8.121,8.121,0,0,1,.067.827c.006,1.515,0,3.031,0,4.545a1.831,1.831,0,0,1-1.125,1.827,2.114,2.114,0,0,1-1.644-.016,2.866,2.866,0,0,1-1.821-2.244,1.666,1.666,0,0,1,0-.325c0-1.17-.023-2.341,0-3.511a2.226,2.226,0,0,1,.585-1.463,9.811,9.811,0,0,1,.957-.808.323.323,0,0,0,.117-.177c.062-.5.091-1.011.173-1.51a12.8,12.8,0,0,1,.317-1.38A11.235,11.235,0,0,1,25.887,10.6a11.813,11.813,0,0,1,4.583-3.955,12.244,12.244,0,0,1,2.521-.9,13.985,13.985,0,0,1,1.826-.232,7.2,7.2,0,0,1,1.037-.054,12.21,12.21,0,0,1,4.619,1.037,11.741,11.741,0,0,1,2.8,1.791,11.9,11.9,0,0,1,3.054,3.959,10.5,10.5,0,0,1,.953,3.028c.069.492.109.987.164,1.481a.413.413,0,0,0,.229.362,2.566,2.566,0,0,1,1.433,2.2c.053,1.156.081,2.316.045,3.473a2.768,2.768,0,0,1-1.6,2.5l-.042.045m-22.1-4.159c0-.834,0-1.669,0-2.5a.514.514,0,0,0-.574-.58,1.418,1.418,0,0,0-1.421,1.4c-.021,1.106-.011,2.213,0,3.319a1.441,1.441,0,0,0,1.09,1.408c.474.117.933.029.915-.678-.021-.789,0-1.578,0-2.366m20.45-.009q0,1.266,0,2.531c0,.244.067.47.316.527a1.239,1.239,0,0,0,.575-.029,1.513,1.513,0,0,0,1.11-1.5q.024-1.5,0-2.994a1.456,1.456,0,0,0-.993-1.5c-.548-.19-1.051-.255-1.015.655.031.77.006,1.542.007,2.313M38.78,30.824h0c.359,0,.717.008,1.075,0a.711.711,0,0,0,.585-.539.6.6,0,0,0-.335-.685,2.993,2.993,0,0,0-.808-.1c-.537-.011-1.075-.011-1.612.016a.6.6,0,0,0-.581.652.675.675,0,0,0,.654.664c.339-.024.681-.005,1.021-.005" transform="translate(-6.46 -1.554)" fill="#8700f0"/>
      <path id="路径_265" data-name="路径 265" d="M34.227,25.521a2.751,2.751,0,0,1-2.656-1.956,3.716,3.716,0,0,1-.127-1.029c-.008-1.85.017-3.7,0-5.551a2.7,2.7,0,0,1,1.75-2.469,4.014,4.014,0,0,1,1.081-.192c2.72-.016,5.44-.009,8.161-.009a2.742,2.742,0,0,1,2.73,2.028,3.944,3.944,0,0,1,.127.922c.012,1.759.006,3.52.006,5.279a2.868,2.868,0,0,1-1.458,2.617,2.324,2.324,0,0,1-1.215.335c-1.167,0-2.334,0-3.5.009a.62.62,0,0,0-.389.162c-.74.728-1.467,1.467-2.2,2.207a1.287,1.287,0,0,1-1.232.437,1.323,1.323,0,0,1-1.066-1.094,7.4,7.4,0,0,1-.014-1.248Zm1.342,1.46c.821-.822,1.647-1.64,2.461-2.47a1,1,0,0,1,.779-.323c1.185.011,2.371-.024,3.555.014a1.572,1.572,0,0,0,1.647-1.657c-.016-1.759,0-3.518,0-5.277a1.516,1.516,0,0,0-1.634-1.643q-4,0-8,0a3.184,3.184,0,0,0-.481.032,1.338,1.338,0,0,0-1.155,1.225c-.035,1.972,0,3.946,0,5.919a1.394,1.394,0,0,0,.824,1.258,2.085,2.085,0,0,0,1.167.136.726.726,0,0,1,.8.793c-.017.661,0,1.323,0,1.985v.041l.041-.034" transform="translate(-9.186 -4.081)" fill="#8700f0"/>
      <path id="路径_266" data-name="路径 266" d="M40.791,20.987a.9.9,0,0,1,.962.839.962.962,0,0,1-.992,1.057.921.921,0,0,1-.9-.978.867.867,0,0,1,.929-.919" transform="translate(-11.646 -5.983)" fill="#8700f0"/>
      <path id="路径_267" data-name="路径 267" d="M35.442,21.886c0-.573.369-.885,1-.909a.949.949,0,0,1,.894.974,1.01,1.01,0,0,1-1.014.937.962.962,0,0,1-.879-1" transform="translate(-10.355 -5.98)" fill="#8700f0"/>
      <path id="路径_268" data-name="路径 268" d="M45.258,20.984a.927.927,0,0,1,.953.922,1.03,1.03,0,0,1-.984.98.951.951,0,0,1-.938-.971.869.869,0,0,1,.968-.932" transform="translate(-12.94 -5.98)" fill="#8700f0"/>
      <path id="路径_269" data-name="路径 269" d="M80.342,15.038v1.655h-.906V30.778H77.762V27.785a30.175,30.175,0,0,1-3.225,1.092L74.1,27.169l.785-.159V16.693h-.663V15.038Zm-2.58,1.655H76.524v2.113h1.238Zm0,3.732H76.524v2.113h1.238Zm0,5.67V24.158H76.524v2.394c.418-.141.82-.3,1.238-.458m7.34-3.7-1.273.335c-.035-.212-.087-.423-.122-.616q-1.884.316-3.5.528l-.331-1.32a8.143,8.143,0,0,0,2.2-2.377c-.627.071-1.255.123-1.883.194l-.366-1.32a1.419,1.419,0,0,0,.61-.563,17.19,17.19,0,0,0,1.464-2.888l1.465.581a17.534,17.534,0,0,1-1.6,2.747c.4-.035.8-.088,1.22-.14.243-.423.5-.846.784-1.3l1.377.563c-.7,1.127-1.342,2.078-1.9,2.835l1.028-.352a26.158,26.158,0,0,1,.837,3.1m-3.19.915v2.8H82.9c.035-.282.07-.545.087-.827V22.926H84.63v2.359a7.02,7.02,0,0,1-.958,3.539,5.619,5.619,0,0,1-2.755,1.9l-.906-1.444a4.478,4.478,0,0,0,2.318-1.5,1.98,1.98,0,0,1,.1-.194H80.359V23.313Zm.069-2.183,1.429-.265c-.1-.37-.192-.721-.3-1.056a14.048,14.048,0,0,1-1.133,1.32m8.385,1.355-1.238.335-.174-.827c-1.22.176-2.336.317-3.364.44l-.331-1.3a7.522,7.522,0,0,0,1.882-2.306c-.627.07-1.254.123-1.918.176l-.348-1.285a1.489,1.489,0,0,0,.592-.563,20.365,20.365,0,0,0,1.169-2.641l1.464.581a18.718,18.718,0,0,1-1.36,2.5l1.186-.158c.21-.405.436-.827.68-1.285l1.377.563c-.575,1.039-1.1,1.92-1.552,2.641l1.028-.334a33.78,33.78,0,0,1,.907,3.468m-.628.863v4.419H87.159v3.081H85.5V22.908h1.656v3.346h1.01V23.348ZM87.21,20.971c.436-.071.924-.141,1.447-.229-.1-.423-.227-.828-.348-1.215a14.046,14.046,0,0,1-1.1,1.444" transform="translate(-21.649 -4.097)" fill="#8700f0"/>
      <path id="路径_270" data-name="路径 270" d="M101.058,26.309a23.093,23.093,0,0,1-.575,4.191l-1.6-.51a18.949,18.949,0,0,0,.558-3.891Zm3.975-3.486a16.171,16.171,0,0,0,3.731-1.972,12.316,12.316,0,0,1-1.5-1.725,14.059,14.059,0,0,1-1.063,1.162l-1.133-1.373A12.989,12.989,0,0,0,108,14.548l1.709.37c-.157.369-.314.721-.488,1.074h4.427v1.32a10.616,10.616,0,0,1-2.335,3.574,17.737,17.737,0,0,0,3.748,1.779l-.767,1.619c-.262-.105-.488-.211-.7-.3v6.8h-1.743v-.739h-3.5v.686H106.6V24c-.192.071-.367.159-.541.229l-1.011-1.374c.192.652.384,1.338.558,2.043l-1.5.387-.157-.686a29.464,29.464,0,0,1-4.532.951l-.437-1.585a3.04,3.04,0,0,0,.767-.493,13.831,13.831,0,0,0,1.865-2.5c-.732.105-1.5.229-2.3.352l-.418-1.6a1.92,1.92,0,0,0,.733-.652,28.761,28.761,0,0,0,2.074-4.63l1.673.668a25.571,25.571,0,0,1-2.405,4.455c.558-.07,1.1-.158,1.622-.247.348-.633.732-1.32,1.116-2.042l1.691.633a44.908,44.908,0,0,1-3.835,5.775c.662-.123,1.324-.265,2-.44-.139-.44-.261-.862-.4-1.25l1.394-.475c.157.405.314.845.471,1.3M103.6,29.531l-1.6.37c-.139-1.373-.314-2.588-.505-3.645l1.482-.335c.244,1.109.454,2.306.628,3.609m2.424-1.144-1.465.668a24.354,24.354,0,0,0-1.028-3.133l1.412-.475a22.385,22.385,0,0,1,1.082,2.94m4.062-6.427a17.038,17.038,0,0,1-3.33,1.972h6.729a19.512,19.512,0,0,1-3.4-1.972m1.6-4.349h-3.364c-.07.106-.122.194-.176.282a9.059,9.059,0,0,0,1.779,1.99,9.7,9.7,0,0,0,1.76-2.271m.157,8.011h-3.5v2.729h3.5Z" transform="translate(-28.888 -4.118)" fill="#8700f0"/>
      <path id="路径_271" data-name="路径 271" d="M131.725,24.376c-.924.317-1.883.6-2.894.863v3.575a1.592,1.592,0,0,1-1.83,1.76h-1.97l-.4-1.743a15.075,15.075,0,0,0,1.743.106.542.542,0,0,0,.61-.6V25.68c-1.011.212-2.039.4-3.121.581l-.261-1.849c1.186-.176,2.319-.387,3.382-.616V20.767h-3.4V19.007h3.4V17.369c-.837.176-1.691.317-2.6.44L124,16.066a23.791,23.791,0,0,0,6.45-1.549l.628,1.726c-.715.264-1.465.493-2.25.7v2.06H132.4c-.1-1.356-.139-2.852-.139-4.472h1.83c.018,1.691.069,3.169.174,4.472h5.213v1.761h-5.073a17.987,17.987,0,0,0,.453,2.817c.07.282.14.528.21.775a15.643,15.643,0,0,0,1.865-2.993l1.569.845a17.2,17.2,0,0,1-2.755,4.138,6.134,6.134,0,0,0,.558,1.074c.488.775.872,1.162,1.116,1.162.192,0,.384-.9.592-2.659l1.621.863c-.453,2.518-1.1,3.785-1.952,3.785a3.319,3.319,0,0,1-2.388-1.567,8.123,8.123,0,0,1-.872-1.391,14.249,14.249,0,0,1-3.958,2.324l-1.011-1.567a12.971,12.971,0,0,0,4.219-2.536q-.288-.845-.523-1.743a21.646,21.646,0,0,1-.593-3.327h-3.73v2.606c1.012-.265,1.988-.546,2.894-.863Zm7.426-7.359-1.307,1.32a16.846,16.846,0,0,0-3.051-2.465l1.22-1.18a24.5,24.5,0,0,1,3.138,2.324" transform="translate(-36.106 -4.139)" fill="#8700f0"/>
      <path id="路径_272" data-name="路径 272" d="M148.471,23.51l-.627-2.025A21.781,21.781,0,0,0,151,14.32l1.656.774a26.279,26.279,0,0,1-1.012,2.993V30.659h-1.76V21.5q-.655,1.029-1.413,2.007m9.31-1.233h-3.033v8.4h-1.761V15.006h4.794Zm-1.708-5.722h-1.325v1.32h1.325Zm-1.325,4.173h1.325V19.338h-1.325ZM158.67,22.3V15.006h4.9V28.916c0,1.092-.524,1.655-1.535,1.655q-1.046,0-2.039-.053l-.454-1.655c.68.035,1.308.07,1.9.07.3,0,.453-.193.453-.581V22.3Zm3.225-5.7h-1.482v1.285h1.482Zm-1.482,4.155H161.9V19.338h-1.482Z" transform="translate(-43.194 -4.083)" fill="#8700f0"/>
    </g>
  </g>
</svg>
