<svg xmlns="http://www.w3.org/2000/svg" xmlns:xlink="http://www.w3.org/1999/xlink" width="135" height="40" viewBox="0 0 135 40">
  <defs>
    <clipPath id="clip-path">
      <rect id="矩形_111" data-name="矩形 111" width="135" height="39.999" fill="none"/>
    </clipPath>
    <clipPath id="clip-path-2">
      <rect id="矩形_113" data-name="矩形 113" width="130.209" height="35.209" rx="6.912" fill="none"/>
    </clipPath>
    <linearGradient id="linear-gradient" x1="-0.026" y1="1.095" x2="-0.021" y2="1.095" gradientUnits="objectBoundingBox">
      <stop offset="0" stop-color="#00cde6"/>
      <stop offset="0.323" stop-color="#0fd6ec"/>
      <stop offset="0.947" stop-color="#38edfd"/>
      <stop offset="1" stop-color="#3cf0ff"/>
    </linearGradient>
  </defs>
  <g id="组_227" data-name="组 227" transform="translate(0 0)">
    <g id="组_222" data-name="组 222" transform="translate(0 0)">
      <g id="组_221" data-name="组 221" clip-path="url(#clip-path)">
        <path id="路径_249" data-name="路径 249" d="M126.645,41.336H4.934A4.973,4.973,0,0,1,0,36.353V9.775A4.973,4.973,0,0,1,4.934,4.791H126.645a4.974,4.974,0,0,1,4.934,4.984V36.353a4.974,4.974,0,0,1-4.934,4.984" transform="translate(0 -1.337)" fill="#5f00ad"/>
      </g>
    </g>
    <g id="组_224" data-name="组 224" transform="translate(4.791 0)">
      <g id="组_223" data-name="组 223" clip-path="url(#clip-path-2)">
        <rect id="矩形_112" data-name="矩形 112" width="130.209" height="35.209" transform="translate(0 0)" fill="url(#linear-gradient)"/>
      </g>
    </g>
    <g id="组_226" data-name="组 226" transform="translate(0 0)">
      <g id="组_225" data-name="组 225" clip-path="url(#clip-path)">
        <path id="路径_250" data-name="路径 250" d="M78.642,15.767a15.743,15.743,0,0,1-4.929,6.513L72.263,21a13.327,13.327,0,0,0,4.665-5.943Zm-3.533,7.245v-1.8H85.762c-.07,2.32-.176,4.175-.353,5.6a6.572,6.572,0,0,1-.883,2.979,2.51,2.51,0,0,1-1.961.893H79.172l-.495-1.838c1.042.035,2.032.071,2.951.071a1.672,1.672,0,0,0,1.714-1.088,18.2,18.2,0,0,0,.548-4.818H80.073a13.372,13.372,0,0,1-1.661,4.353,12.5,12.5,0,0,1-4.081,3.516l-1.2-1.552a11.333,11.333,0,0,0,3.6-2.837,10.541,10.541,0,0,0,1.467-3.48Zm8.763-8.173A11.751,11.751,0,0,0,88.7,20.692l-1.219,1.7a14.011,14.011,0,0,1-4.824-5.728H80.32v-1.82Z" transform="translate(-20.675 -4.14)" fill="#8700f0"/>
        <path id="路径_251" data-name="路径 251" d="M104.644,25.789v-.446l3.11-1.25H98.831V22.452h12.633v1.3c-1.414.607-3.074,1.285-4.947,2.034h6.856v1.678h-6.908v1.2a1.7,1.7,0,0,1-1.89,1.945h-2.439l-.495-1.66c.937.071,1.678.107,2.209.107s.795-.322.795-.928v-.66H97.117V25.789Zm1.4-10.421h6.943v1.748H97.505V15.368h6.414a9.557,9.557,0,0,0-.689-.964l2.137-.357a12.963,12.963,0,0,1,.672,1.321m4.753,6.388H99.714V17.777h11.079Zm-1.785-2.409H101.5v.839h7.509Z" transform="translate(-27.785 -3.919)" fill="#8700f0"/>
        <path id="路径_252" data-name="路径 252" d="M126.479,14.077c-.195,1.142-.388,2.2-.565,3.176h2.9v1.017a19.085,19.085,0,0,1-1.573,7.245,27.561,27.561,0,0,1,2.314,2.016L128.3,29c-.548-.571-1.2-1.178-1.944-1.82a13.547,13.547,0,0,1-3.163,3.515L121.92,29.1a11.94,11.94,0,0,0,2.987-3.141q-1.194-.99-2.6-2.034c.513-1.5.972-3.123,1.4-4.872H122.08v-1.8h2.014c.212-1.088.406-2.212.583-3.354Zm.53,4.979h-1.466a35.865,35.865,0,0,1-1.219,4.3c.513.357.989.7,1.431,1.035a16.042,16.042,0,0,0,1.254-5.336m5.92,2.284V19.377a21.545,21.545,0,0,0,2.491-2.784h-5.76v-1.82h7.88v1.82a25.946,25.946,0,0,1-2.756,3.355V21.34h3.374v1.82h-3.374v5.122c0,1.392-.531,2.087-1.556,2.087h-2.65L130.1,28.6c.706.018,1.5.036,2.367.036.3,0,.46-.3.46-.911V23.16h-3.764V21.34Z" transform="translate(-34.882 -3.878)" fill="#8700f0"/>
        <path id="路径_253" data-name="路径 253" d="M151.8,16.369c.089-.732.177-1.481.247-2.248H153.9c-.071.785-.159,1.534-.247,2.248h8.94V18.19h-9.206c-.124.749-.247,1.463-.388,2.141h7.933v1.624a12.042,12.042,0,0,1-3.056,4.8,15.583,15.583,0,0,0,4.983,2.159l-.937,1.7a15.972,15.972,0,0,1-5.494-2.624,19.885,19.885,0,0,1-5.354,2.712l-.954-1.785a17.065,17.065,0,0,0,4.964-2.141,10.547,10.547,0,0,1-2.561-4.444c-.177.643-.371,1.232-.565,1.767a19.142,19.142,0,0,1-4.171,6.406L146.6,28.95a17.076,17.076,0,0,0,3.676-5.675,30.356,30.356,0,0,0,1.254-5.085h-4.4V16.369Zm4.717,9.279A9.529,9.529,0,0,0,159,22.062h-4.859a9.472,9.472,0,0,0,2.367,3.587" transform="translate(-41.943 -3.94)" fill="#8700f0"/>
        <path id="路径_254" data-name="路径 254" d="M19.181,20.163c.082-.386.155-.774.248-1.157a8.879,8.879,0,0,1,1.763-3.523,8.5,8.5,0,0,1,2.846-2.3,7.272,7.272,0,0,1,2.456-.79,16.092,16.092,0,0,1,1.785-.12,8.236,8.236,0,0,1,2.941.6,8.6,8.6,0,0,1,3.412,2.415c.434.5.786,1.069,1.192,1.631.213-.118.46-.259.711-.394a.617.617,0,1,1,.593,1.082c-.206.137-.426.255-.643.376-.136.076-.195.147-.127.33a8.639,8.639,0,0,1,.421,3.674,19.5,19.5,0,0,1-.418,2.229l6.367,3.849a4.16,4.16,0,0,1,3.012-1.861,4.273,4.273,0,0,1,3.118.76,4.384,4.384,0,0,1,1.223,5.829,4.318,4.318,0,0,1-5.6,1.754A4.438,4.438,0,0,1,42.194,29.2l-6.343-3.842c-.375.518-.708,1.007-1.072,1.473a8.528,8.528,0,0,1-2.354,2.04,8.377,8.377,0,0,1-2.938,1.091,8.082,8.082,0,0,1-2.168.107,9.131,9.131,0,0,1-3.457-1.018,9.013,9.013,0,0,1-4.455-5.825c-.086-.355-.152-.715-.227-1.074Zm6.039,2.208a3.916,3.916,0,0,1-1-3.064,3.787,3.787,0,0,1,6.432-2.3,3.878,3.878,0,0,1,.119,5.379c.086.025.171.05.255.076a2.851,2.851,0,0,1,1.83,1.621,4.624,4.624,0,0,1,.274,1.948c0,.239,0,.479,0,.764a7.721,7.721,0,0,0,1.734-8.907,7.524,7.524,0,0,0-8.357-4.247,7.639,7.639,0,0,0-6.1,6.723c-.3,2.092,1.055,5.69,2.479,6.4,0-.135,0-.255,0-.374A12.92,12.92,0,0,1,22.95,24.7a2.851,2.851,0,0,1,2.269-2.326m2.753,1.207c-.667,0-1.334-.005-2,0a2.947,2.947,0,0,0-.657.068,1.514,1.514,0,0,0-1.191,1.382c-.05.857-.01,1.72,0,2.579a.319.319,0,0,0,.122.237,7.7,7.7,0,0,0,3.609,1.014,9.1,9.1,0,0,0,1.292-.118,7.246,7.246,0,0,0,2.576-.9.467.467,0,0,0,.17-.349c.016-.694.01-1.389.008-2.083a1.714,1.714,0,0,0-1.837-1.837c-.7,0-1.4,0-2.093,0m18.3,10.143a3.155,3.155,0,0,0,3.195-3.165,3.128,3.128,0,0,0-6.257-.037,3.168,3.168,0,0,0,3.062,3.2M27.945,17.177a2.513,2.513,0,0,0-2.527,2.562,2.573,2.573,0,1,0,5.146.04,2.53,2.53,0,0,0-2.619-2.6" transform="translate(-5.488 -3.424)" fill="#8700f0"/>
        <path id="路径_255" data-name="路径 255" d="M51.451,12.436c-.206.111-.461.239-.708.383a.6.6,0,0,1-.83-.123.582.582,0,0,1,.116-.838,3.705,3.705,0,0,1,.7-.452.279.279,0,0,0,.168-.37,4.227,4.227,0,0,1,.691-3.762,3.922,3.922,0,0,1,2.664-1.684,4.213,4.213,0,0,1,3.122.557A4.289,4.289,0,0,1,59.35,9a4.261,4.261,0,0,1-.635,3.317A4.327,4.327,0,0,1,55.7,14.238a4.1,4.1,0,0,1-3.4-1c-.283-.238-.54-.509-.852-.805m3.6-5.666a3.063,3.063,0,0,0-3.085,3.047,3.13,3.13,0,1,0,6.259.061,3.054,3.054,0,0,0-3.173-3.108" transform="translate(-14.244 -1.537)" fill="#8700f0"/>
        <path id="路径_256" data-name="路径 256" d="M47.025,17.324a.611.611,0,0,1-.585-.632.506.506,0,0,1,.538-.549c.443,0,.7.21.693.57a.626.626,0,0,1-.646.611" transform="translate(-13.287 -4.504)" fill="#8700f0"/>
        <path id="路径_257" data-name="路径 257" d="M29.943,27.952c.7,0,1.4,0,2.093,0a1.714,1.714,0,0,1,1.837,1.837c0,.694.009,1.389-.008,2.083a.465.465,0,0,1-.17.348,7.218,7.218,0,0,1-2.576.9,9.091,9.091,0,0,1-1.292.118,7.7,7.7,0,0,1-3.609-1.014.32.32,0,0,1-.122-.237c-.011-.86-.051-1.723,0-2.579a1.514,1.514,0,0,1,1.191-1.382,2.906,2.906,0,0,1,.657-.068c.667-.009,1.334,0,2,0" transform="translate(-7.459 -7.798)" fill="#fff"/>
        <path id="路径_258" data-name="路径 258" d="M30.444,19.075a2.53,2.53,0,0,1,2.619,2.6,2.573,2.573,0,1,1-5.146-.04,2.513,2.513,0,0,1,2.527-2.562" transform="translate(-7.987 -5.322)" fill="#fff"/>
      </g>
    </g>
  </g>
</svg>
