<svg xmlns="http://www.w3.org/2000/svg" width="89.749" height="80.663" viewBox="0 0 89.749 80.663">
  <g id="组_264" data-name="组 264" transform="translate(15776.299 288.477)">
    <path id="路径_151" data-name="路径 151" d="M20.3,61.56l-.789,14.661s-.789,2.207,1.894,1.419L35.011,67.518c.968-.721,7.076-.884,8.311-.936C61.7,65.81,84.535,58.2,86.649,35.8c1.2-12.75-6.252-22.912-16.992-28.315C57.7,1.471,41.976,1.6,29.414,5.862,11.486,11.938-5.7,31.885,7.425,50.737a32.191,32.191,0,0,0,5.737,6.239c.656.55,7.149,4.405,7.139,4.584" transform="translate(-15776.133 -288.476)" fill="#f0ea39"/>
    <path id="路径_152" data-name="路径 152" d="M20.3,61.56l-.789,14.661s-.789,2.207,1.894,1.419L35.011,67.518c.968-.721,7.076-.884,8.311-.936C61.7,65.81,84.535,58.2,86.649,35.8c1.2-12.75-6.252-22.912-16.992-28.315C57.7,1.471,41.976,1.6,29.414,5.862,11.486,11.938-5.7,31.885,7.425,50.737a32.191,32.191,0,0,0,5.737,6.239C13.818,57.526,20.311,61.381,20.3,61.56Z" transform="translate(-15776.133 -288.476)" fill="none" stroke="#8700f0" stroke-linecap="round" stroke-linejoin="round" stroke-width="5.601"/>
    <path id="路径_153" data-name="路径 153" d="M35.524,42.752a6.854,6.854,0,0,1,4.817,1,4.83,4.83,0,0,1,1.951,3.588,5.345,5.345,0,0,1-.5,3.048,4.962,4.962,0,0,1-2.113,1.951,4.835,4.835,0,0,1,3.132,1.351,5.324,5.324,0,0,1,1.323,3.241,5.349,5.349,0,0,1-1.588,4.834A8.731,8.731,0,0,1,37.7,63.5l-9.159.946L26.393,43.7Zm-4.961,9.325,5-.517a4.825,4.825,0,0,0,2.885-1.032,3.016,3.016,0,0,0,.622-2.443,2.6,2.6,0,0,0-1.088-2.061,4.821,4.821,0,0,0-2.976-.4l-5.054.522Zm.957,9.242,5.417-.559a5.845,5.845,0,0,0,2.841-.911,2.675,2.675,0,0,0,1.082-2.638,3.122,3.122,0,0,0-1.242-2.456,5.206,5.206,0,0,0-3.265-.456l-5.5.568Z" transform="translate(-15785.673 -304.631)" fill="#8700f0"/>
    <path id="路径_154" data-name="路径 154" d="M69.816,50.975A10.368,10.368,0,0,1,72.2,57.133L61.4,58.249a5.608,5.608,0,0,0,1.42,3.085,3.324,3.324,0,0,0,2.768.83,3.827,3.827,0,0,0,2.3-.943,4.98,4.98,0,0,0,1.095-1.964l3.184-.328a6.92,6.92,0,0,1-1.647,3.724,7.026,7.026,0,0,1-4.626,2.211,6.65,6.65,0,0,1-5.324-1.535,8.256,8.256,0,0,1-2.619-5.663,8.369,8.369,0,0,1,1.319-5.805,6.173,6.173,0,0,1,4.844-2.821,6.392,6.392,0,0,1,5.7,1.936M62.087,52.92a5,5,0,0,0-.893,2.824l7.428-.768c-.532-2.413-1.912-3.474-4.146-3.244a3.256,3.256,0,0,0-2.389,1.187" transform="translate(-15798.409 -307.18)" fill="#8700f0"/>
    <path id="路径_155" data-name="路径 155" d="M87.174,44.107l3.212-.332.283,2.732-3.212.331.879,8.487a1.226,1.226,0,0,0,.307.79.94.94,0,0,0,.753.187l1.9-.2.283,2.732-2.43.251a3.433,3.433,0,0,1-2.873-.761,4.062,4.062,0,0,1-1.123-2.674l-.879-8.487-2.6.268L81.394,44.7l2.6-.268-.361-3.488,3.042-1.695Z" transform="translate(-15807.914 -303.238)" fill="#8700f0"/>
    <path id="路径_156" data-name="路径 156" d="M110.917,45.867a5.953,5.953,0,0,1,1.774,4.047l.993,9.59-2.96.306-.2-1.977a5.708,5.708,0,0,1-1.889,1.929,7.6,7.6,0,0,1-3.2,1.006,5.1,5.1,0,0,1-3.67-.825A4,4,0,0,1,100.1,57a4.475,4.475,0,0,1,1.5-4.09A8.6,8.6,0,0,1,106.4,51l3.147-.413-.06-.581c-.2-1.977-1.337-2.829-3.4-2.615a3.817,3.817,0,0,0-2.071.713,2.614,2.614,0,0,0-1.02,1.868l-3.182.064a5.106,5.106,0,0,1,1.969-3.876,7.912,7.912,0,0,1,4.251-1.467,6.145,6.145,0,0,1,4.891,1.169m-4.05,7.5c-2.535.321-3.7,1.381-3.509,3.183a1.581,1.581,0,0,0,.778,1.242,2.7,2.7,0,0,0,1.761.375,4.6,4.6,0,0,0,2.985-1.425,3.749,3.749,0,0,0,.986-3.01l-.079-.756Z" transform="translate(-15815.36 -305.419)" fill="#8700f0"/>
  </g>
</svg>
