<svg id="组_193" data-name="组 193" xmlns="http://www.w3.org/2000/svg" xmlns:xlink="http://www.w3.org/1999/xlink" width="131" height="100" viewBox="0 0 131 100">
  <defs>
    <clipPath id="clip-path">
      <rect id="矩形_97" data-name="矩形 97" width="131" height="100" fill="none"/>
    </clipPath>
  </defs>
  <g id="组_192" data-name="组 192" clip-path="url(#clip-path)">
    <g id="组_191" data-name="组 191">
      <g id="组_190" data-name="组 190" clip-path="url(#clip-path)">
        <g id="组_189" data-name="组 189" opacity="0.24">
          <g id="组_188" data-name="组 188">
            <g id="组_187" data-name="组 187" clip-path="url(#clip-path)">
              <path id="路径_226" data-name="路径 226" d="M0,48.63C0,19.556,13.222,0,38.094,0,62.181,0,74.487,18.774,74.356,48.891,74.226,78.617,64.276,100,37.308,100,10.735,100,0,78.1,0,48.63m52.626.13C52.363,26.466,49.091,13.3,37.439,13.428c-11,.13-15.708,13.168-15.578,35.2.131,23.207,4.189,37.81,15.84,37.679,12.043-.13,15.185-14.6,14.924-37.549" transform="translate(0 0)" fill="#d9abff"/>
              <path id="路径_227" data-name="路径 227" d="M153.738,29.741c-4.712,2.738-9.818.782-11.389-3.129s.524-7.953,3.928-9.908l22.647-13.69a18.342,18.342,0,0,1,14.531-1.956c5.237,1.695,6.938,5.867,6.938,10.952V89.845c0,6.649-3.4,10.039-9.818,10.039-6.153,0-9.688-3.39-9.688-10.039v-70.4Z" transform="translate(-59.392 -0.145)" fill="#d9abff"/>
            </g>
          </g>
        </g>
      </g>
    </g>
  </g>
</svg>
