<svg xmlns="http://www.w3.org/2000/svg" width="344" height="168" viewBox="0 0 344 168">
  <g id="组_285" data-name="组 285" transform="translate(-15.17 -2412.5)">
    <path id="路径_312" data-name="路径 312" d="M334.147,179.462a34.919,34.919,0,0,1-12.514-3.05,15.9,15.9,0,0,1-8.561,3.05H21.556A16.229,16.229,0,0,1,5,163.216V36.588A16.591,16.591,0,0,1,21.556,20H313.073a16.591,16.591,0,0,1,16.556,16.588v116.22c0,12.45,6.657,21.858,9.585,22.671a1.708,1.708,0,0,1,0,3.291,18.95,18.95,0,0,1-5.066.692" transform="translate(11.877 2399.33)" fill="#2d0075"/>
    <path id="路径_313" data-name="路径 313" d="M309.783,18.415A14.866,14.866,0,0,1,324.635,33.3v116.22c0,13.1,6.95,23.238,10.834,24.316a17.2,17.2,0,0,1-4.611.63c-3.381,0-9.942-1.659-12.6-3.344-2.4,1.676-5.322,3.344-8.472,3.344H18.26A14.578,14.578,0,0,1,3.408,159.923V33.3A14.867,14.867,0,0,1,18.26,18.415Zm0-3.415H18.26A18.3,18.3,0,0,0,0,33.3V159.923a17.684,17.684,0,0,0,5.387,12.8,18.362,18.362,0,0,0,12.873,5.149H309.783a16.679,16.679,0,0,0,8.691-2.816,37.161,37.161,0,0,0,12.385,2.816,20.647,20.647,0,0,0,5.521-.754,3.417,3.417,0,0,0,0-6.582c-.648-.212-2.775-2.036-4.827-6.065a33.557,33.557,0,0,1-3.51-14.96V33.3A18.3,18.3,0,0,0,309.783,15" transform="translate(15.17 2402.623)" fill="#2d0075"/>
    <path id="路径_314" data-name="路径 314" d="M349.147,164.462a34.919,34.919,0,0,1-12.514-3.05,15.9,15.9,0,0,1-8.561,3.05H36.556A16.229,16.229,0,0,1,20,148.216V21.588A16.591,16.591,0,0,1,36.556,5H328.073a16.591,16.591,0,0,1,16.556,16.588v116.22c0,12.45,6.657,21.858,9.585,22.671a1.708,1.708,0,0,1,0,3.291,18.949,18.949,0,0,1-5.066.692" transform="translate(2 2409.208)" fill="#fff"/>
    <path id="路径_315" data-name="路径 315" d="M324.783,3.415A14.866,14.866,0,0,1,339.635,18.3v116.22c0,13.1,6.95,23.238,10.834,24.316a17.2,17.2,0,0,1-4.611.63c-3.381,0-9.942-1.659-12.6-3.344-2.4,1.676-5.322,3.344-8.472,3.344H33.26a14.578,14.578,0,0,1-14.852-14.539V18.3A14.867,14.867,0,0,1,33.26,3.415Zm0-3.415H33.26A18.3,18.3,0,0,0,15,18.3V144.923a17.684,17.684,0,0,0,5.387,12.8,18.362,18.362,0,0,0,12.873,5.149H324.783a16.679,16.679,0,0,0,8.691-2.816,37.16,37.16,0,0,0,12.385,2.816,20.647,20.647,0,0,0,5.521-.754,3.417,3.417,0,0,0,0-6.582c-.648-.212-2.775-2.036-4.827-6.065a33.558,33.558,0,0,1-3.51-14.96V18.3A18.3,18.3,0,0,0,324.783,0" transform="translate(5.292 2412.5)" fill="#00cde6"/>
  </g>
</svg>
