<svg xmlns="http://www.w3.org/2000/svg" width="252" height="50" viewBox="0 0 252 50">
  <g id="组_274" data-name="组 274" transform="translate(-6011.085 -823.318)">
    <path id="路径_292" data-name="路径 292" d="M238.849,36.925V32.059a15.58,15.58,0,0,0-15.4-15.757H21.668A15.581,15.581,0,0,0,6.27,32.059v9.149a15.581,15.581,0,0,0,15.4,15.757H223.451a15.08,15.08,0,0,0,8.784-2.818c2.759,1.785,8.411,2.818,11.916,2.818a17.494,17.494,0,0,0,4.781-.667c-4.814-2.434-10.083-10.638-10.083-19.373" transform="translate(6008.815 812.353)" fill="#5f00ad"/>
    <path id="路径_293" data-name="路径 293" d="M238.849,36.925V32.059a15.58,15.58,0,0,0-15.4-15.757H21.668A15.581,15.581,0,0,0,6.27,32.059v9.149a15.581,15.581,0,0,0,15.4,15.757H223.451a15.08,15.08,0,0,0,8.784-2.818c2.759,1.785,8.411,2.818,11.916,2.818a17.494,17.494,0,0,0,4.781-.667C244.119,53.864,238.849,45.66,238.849,36.925Z" transform="translate(6008.815 812.353)" fill="none" stroke="#5f00ad" stroke-linecap="round" stroke-linejoin="round" stroke-width="8"/>
    <path id="路径_294" data-name="路径 294" d="M248.882,26.893V22.027a15.58,15.58,0,0,0-15.4-15.757H31.7A15.581,15.581,0,0,0,16.3,22.027v9.149A15.581,15.581,0,0,0,31.7,46.933H233.484a15.081,15.081,0,0,0,8.784-2.818c2.759,1.785,8.411,2.818,11.916,2.818a17.493,17.493,0,0,0,4.781-.667c-4.814-2.434-10.083-10.638-10.083-19.373" transform="translate(6002.12 819.048)" fill="#fff"/>
    <path id="路径_295" data-name="路径 295" d="M248.882,26.893V22.027a15.58,15.58,0,0,0-15.4-15.757H31.7A15.581,15.581,0,0,0,16.3,22.027v9.149A15.581,15.581,0,0,0,31.7,46.933H233.484a15.081,15.081,0,0,0,8.784-2.818c2.759,1.785,8.411,2.818,11.916,2.818a17.493,17.493,0,0,0,4.781-.667C254.152,43.832,248.882,35.628,248.882,26.893Z" transform="translate(6002.12 819.048)" fill="none" stroke="#f3f3f3" stroke-linecap="round" stroke-linejoin="round" stroke-width="4"/>
  </g>
</svg>
