<svg xmlns="http://www.w3.org/2000/svg" width="334" height="776" viewBox="0 0 334 776">
  <g id="组_288" data-name="组 288" transform="translate(-5236.195 -459.195)">
    <path id="路径_305" data-name="路径 305" d="M319.992,778.6H44.317c-9.134,0-16.607-8-16.607-17.772V51.816S17.263,52.874,6.6,29.936c0,0,15.463,13.062,21.111-5.564C27.71,14.6,35.183,6.6,44.317,6.6H319.992c9.134,0,16.607,8,16.607,17.772V760.829c0,9.774-7.473,17.772-16.607,17.772" transform="translate(5231.596 454.594)" fill="#fff"/>
    <path id="路径_306" data-name="路径 306" d="M319.992,778.6H44.317c-9.134,0-16.607-8-16.607-17.772V51.816S17.263,52.874,6.6,29.936c0,0,15.463,13.062,21.111-5.564C27.71,14.6,35.183,6.6,44.317,6.6H319.992c9.134,0,16.607,8,16.607,17.772V760.829C336.6,770.6,329.126,778.6,319.992,778.6Z" transform="translate(5231.596 454.594)" fill="none" stroke="#00cde6" stroke-linecap="round" stroke-linejoin="round" stroke-width="4"/>
  </g>
</svg>
