<svg xmlns="http://www.w3.org/2000/svg" width="38" height="30" viewBox="0 0 38 30">
  <g id="组_259" data-name="组 259" transform="translate(0 0)">
    <path id="路径_149" data-name="路径 149" d="M20.47,0V6h6.092v6h6.093v6H26.562v6H20.47v6l6.092-5,1.219-1,4.874-4,2.437-2,3.656-3-3.656-3-2.437-2L27.781,6,26.562,5Z" transform="translate(-0.748)" fill="#7600da"/>
    <path id="路径_150" data-name="路径 150" d="M0,0V6H6.093v6h6.092v6H6.093v6H0v6l6.093-5,1.219-1,4.873-4,2.437-2,3.656-3-3.656-3-2.437-2L7.312,6,6.093,5Z" fill="#7600da"/>
  </g>
</svg>
