<svg xmlns="http://www.w3.org/2000/svg" width="146.03" height="131.078" viewBox="0 0 146.03 131.078">
  <g id="组_262" data-name="组 262" transform="translate(-622.988 -860.984)">
    <path id="路径_151" data-name="路径 151" d="M32.064,101.055l-1.32,24.515s-1.319,3.69,3.167,2.373l22.75-16.925c1.618-1.2,11.832-1.479,13.9-1.565,30.738-1.291,68.916-14.016,72.45-51.471,2.013-21.32-10.454-38.312-28.413-47.348C94.6.576,68.307.8,47.3,7.919,17.324,18.079-11.417,51.433,10.534,82.957A53.828,53.828,0,0,0,20.127,93.39c1.1.92,11.955,7.366,11.938,7.666" transform="translate(622.988 860.986)" fill="#f0ea39"/>
    <path id="路径_152" data-name="路径 152" d="M32.064,101.055l-1.32,24.515s-1.319,3.69,3.167,2.373l22.75-16.925c1.618-1.2,11.832-1.479,13.9-1.565,30.738-1.291,68.916-14.016,72.45-51.471,2.013-21.32-10.454-38.312-28.413-47.348C94.6.576,68.307.8,47.3,7.919,17.324,18.079-11.417,51.433,10.534,82.957A53.828,53.828,0,0,0,20.127,93.39C21.223,94.31,32.081,100.756,32.064,101.055Z" transform="translate(622.988 860.986)" fill="none" stroke="#8700f0" stroke-linecap="round" stroke-linejoin="round" stroke-width="5.601"/>
    <path id="路径_153" data-name="路径 153" d="M41.662,42.792c3.316-.342,6.016.214,8.055,1.674a8.077,8.077,0,0,1,3.263,6,8.938,8.938,0,0,1-.841,5.1,8.3,8.3,0,0,1-3.533,3.263,8.084,8.084,0,0,1,5.237,2.26,8.9,8.9,0,0,1,2.212,5.42c.363,3.5-.538,6.195-2.655,8.083-1.82,1.563-4.551,2.533-8.1,2.9L29.984,79.069l-3.591-34.7Zm-8.3,15.593,8.358-.864c2.335-.242,3.924-.848,4.823-1.726a5.044,5.044,0,0,0,1.04-4.086,4.353,4.353,0,0,0-1.82-3.447,8.062,8.062,0,0,0-4.977-.665l-8.452.873Zm1.6,15.454,9.058-.935a9.774,9.774,0,0,0,4.751-1.523,4.472,4.472,0,0,0,1.809-4.411,5.221,5.221,0,0,0-2.077-4.107q-1.817-1.139-5.459-.762l-9.2.95Z" transform="translate(622.894 860.787)" fill="#8700f0"/>
    <path id="路径_154" data-name="路径 154" d="M77.834,52.311c2.176,2.329,3.525,5.776,3.992,10.3L63.755,64.474a9.378,9.378,0,0,0,2.374,5.158,5.558,5.558,0,0,0,4.628,1.388,6.4,6.4,0,0,0,3.847-1.577,8.327,8.327,0,0,0,1.831-3.284l5.324-.549a11.572,11.572,0,0,1-2.754,6.228,11.748,11.748,0,0,1-7.735,3.7,11.119,11.119,0,0,1-8.9-2.567c-2.488-2.15-3.946-5.29-4.379-9.47A13.994,13.994,0,0,1,60.2,53.791a10.323,10.323,0,0,1,8.1-4.717c3.97-.41,7.145.637,9.538,3.238M64.91,55.563a8.354,8.354,0,0,0-1.493,4.722L75.837,59c-.889-4.035-3.2-5.81-6.933-5.424a5.445,5.445,0,0,0-3.995,1.985" transform="translate(622.767 860.756)" fill="#8700f0"/>
    <path id="路径_155" data-name="路径 155" d="M91.06,47.369l5.37-.555.473,4.569-5.37.554L93,66.129a2.051,2.051,0,0,0,.514,1.321,1.571,1.571,0,0,0,1.26.312l3.175-.328L98.424,72l-4.063.42a5.741,5.741,0,0,1-4.8-1.273,6.793,6.793,0,0,1-1.878-4.472L86.209,52.488l-4.342.449-.473-4.568,4.342-.449-.6-5.832,5.086-2.834Z" transform="translate(622.671 860.804)" fill="#8700f0"/>
    <path id="路径_156" data-name="路径 156" d="M118.385,46.693q2.492,2.173,2.967,6.767l1.66,16.037-4.95.512-.343-3.305a9.544,9.544,0,0,1-3.158,3.225,12.7,12.7,0,0,1-5.347,1.682,8.531,8.531,0,0,1-6.136-1.379,6.681,6.681,0,0,1-2.775-4.92,7.483,7.483,0,0,1,2.5-6.84q2.715-2.491,8.022-3.187l5.262-.691-.1-.972c-.342-3.305-2.236-4.73-5.691-4.373a6.383,6.383,0,0,0-3.463,1.193,4.371,4.371,0,0,0-1.706,3.123l-5.321.107a8.538,8.538,0,0,1,3.293-6.48c1.654-1.349,4.027-2.134,7.108-2.453,3.549-.367,6.306.282,8.178,1.954M111.613,59.23c-4.239.536-6.18,2.308-5.867,5.322a2.643,2.643,0,0,0,1.3,2.077,4.517,4.517,0,0,0,2.944.628,7.693,7.693,0,0,0,4.992-2.382,6.269,6.269,0,0,0,1.649-5.033l-.131-1.264Z" transform="translate(622.597 860.777)" fill="#8700f0"/>
  </g>
</svg>
