<svg xmlns="http://www.w3.org/2000/svg" width="30" height="23" viewBox="0 0 30 23">
  <g id="组_263" data-name="组 263" transform="translate(0 0)">
    <path id="路径_149" data-name="路径 149" d="M20.47,0V4.6h4.747V9.2h4.748v4.6H25.217v4.6H20.47V23l4.747-3.834.95-.766,3.8-3.067,1.9-1.533,2.849-2.3L31.864,9.2l-1.9-1.533L26.167,4.6l-.95-.766Z" transform="translate(-4.712)" fill="#00cde6"/>
    <path id="路径_150" data-name="路径 150" d="M0,0V4.6H4.748V9.2H9.495v4.6H4.748v4.6H0V23l4.748-3.834L5.7,18.4l3.8-3.067,1.9-1.533,2.849-2.3L11.394,9.2l-1.9-1.533L5.7,4.6l-.95-.766Z" fill="#00cde6"/>
  </g>
</svg>
