<svg id="组_292" data-name="组 292" xmlns="http://www.w3.org/2000/svg" xmlns:xlink="http://www.w3.org/1999/xlink" width="146" height="100" viewBox="0 0 146 100">
  <defs>
    <clipPath id="clip-path">
      <rect id="矩形_100" data-name="矩形 100" width="146" height="100" fill="none"/>
    </clipPath>
  </defs>
  <g id="组_199" data-name="组 199" clip-path="url(#clip-path)">
    <g id="组_198" data-name="组 198">
      <g id="组_197" data-name="组 197" clip-path="url(#clip-path)">
        <g id="组_196" data-name="组 196" opacity="0.24">
          <g id="组_195" data-name="组 195">
            <g id="组_194" data-name="组 194" clip-path="url(#clip-path)">
              <path id="路径_228" data-name="路径 228" d="M0,48.63C0,19.556,13.159,0,37.913,0,61.886,0,74.133,18.774,74,48.891,73.873,78.617,63.971,100,37.131,100,10.684,100,0,78.1,0,48.63m52.376.13C52.114,26.466,48.858,13.3,37.262,13.428c-10.943.13-15.634,13.168-15.5,35.2.131,23.207,4.169,37.81,15.765,37.679,11.986-.13,15.113-14.6,14.853-37.549" transform="translate(0 0)" fill="#d9abff"/>
              <path id="路径_229" data-name="路径 229" d="M137.078,88.619c0-4.954,1.3-7.041,6.775-11.212,9.9-7.562,18.11-14.211,25.016-22.034,7.035-8.214,12.116-16.558,12.116-25.423.13-9.258-6.254-14.473-14.462-15.124a21.487,21.487,0,0,0-16.416,6.258c-3.387,3.26-7.947,3.39-10.944-.26-2.867-3.26-2.215-7.823,1.3-10.952C146.2,4.526,155.97.092,169,.223c18.11.26,32.18,9.518,32.18,28.031,0,13.038-10.814,26.858-17.067,33.247a195.782,195.782,0,0,1-22.931,19.818c-1.172.912-.781,1.825.912,1.825h34.136c4.95,0,7.556,2.477,7.556,6.91,0,4.824-2.606,7.432-7.556,7.432H147.761c-7.947,0-10.553-3.781-10.683-8.866" transform="translate(-57.785 -0.093)" fill="#d9abff"/>
            </g>
          </g>
        </g>
      </g>
    </g>
  </g>
</svg>
