<svg id="组_296" data-name="组 296" xmlns="http://www.w3.org/2000/svg" xmlns:xlink="http://www.w3.org/1999/xlink" width="144" height="100" viewBox="0 0 144 100">
  <defs>
    <clipPath id="clip-path">
      <rect id="矩形_103" data-name="矩形 103" width="144" height="100" fill="none"/>
    </clipPath>
  </defs>
  <g id="组_206" data-name="组 206" clip-path="url(#clip-path)">
    <g id="组_205" data-name="组 205">
      <g id="组_204" data-name="组 204" clip-path="url(#clip-path)">
        <g id="组_203" data-name="组 203" opacity="0.24">
          <g id="组_202" data-name="组 202">
            <g id="组_201" data-name="组 201" clip-path="url(#clip-path)">
              <path id="路径_230" data-name="路径 230" d="M0,48.63C0,19.556,13.122,0,37.806,0c23.9,0,36.117,18.775,35.988,48.892C73.664,78.617,63.79,100,37.026,100,10.654,100,0,78.1,0,48.63m52.227.13c-.26-22.295-3.508-35.463-15.07-35.332C26.244,13.559,21.566,26.6,21.7,48.63c.13,23.207,4.158,37.81,15.72,37.679,11.953-.13,15.07-14.6,14.811-37.549" transform="translate(0 0)" fill="#d9abff"/>
              <path id="路径_231" data-name="路径 231" d="M140.7,94.714a7.994,7.994,0,0,1-3.118-10.3,6.939,6.939,0,0,1,9.094-3c4.028,1.825,9.614,4.172,14.681,4.172,11.173,0,19.487-4.694,19.487-14.863,0-11.994-6.886-16.037-23.385-16.3-4.158-.13-6.756-2.607-6.756-6.78,0-3.911,2.6-6.649,6.885-6.649,14.421,0,21.307-5.085,21.307-14.081,0-8.866-5.327-12.777-14.811-12.777-5.067,0-9.484,2.477-12.732,4.954-3.248,2.608-8.7,2.738-11.173-1.565-2.339-3.911-1.039-7.823,2.858-10.561C149.011,2.666,159.274.45,166.549.45c17.409,0,31.57,8.084,31.57,24.512,0,10.43-6.756,18.383-18.839,21.382,14.551,2.347,22.606,10.951,22.606,23.989,0,18.644-14.811,29.465-38.066,29.465-7.795,0-17.538-1.564-23.125-5.085" transform="translate(-57.887 -0.19)" fill="#d9abff"/>
            </g>
          </g>
        </g>
      </g>
    </g>
  </g>
</svg>
