<svg xmlns="http://www.w3.org/2000/svg" width="254" height="72.692" viewBox="0 0 254 72.692">
  <g id="组_297" data-name="组 297" transform="translate(-6643 -812.35)">
    <path id="路径_296" data-name="路径 296" d="M0,50.339v-33S1.59.967,18.915,0V50.339Z" transform="translate(6643 813.042)" fill="#5f00af"/>
    <path id="路径_297" data-name="路径 297" d="M240.7,105v-4.889a15.682,15.682,0,0,0-15.528-15.831H21.689A15.682,15.682,0,0,0,6.161,100.112V109.3a15.682,15.682,0,0,0,15.528,15.831H225.176a15.246,15.246,0,0,0,8.858-2.831c2.782,1.793,8.482,2.831,12.017,2.831a17.7,17.7,0,0,0,4.821-.67C246.018,122.019,240.7,113.777,240.7,105" transform="translate(6640.888 755.907)" fill="#5f00ad"/>
    <path id="路径_298" data-name="路径 298" d="M240.7,105v-4.889a15.682,15.682,0,0,0-15.528-15.831H21.689A15.682,15.682,0,0,0,6.161,100.112V109.3a15.682,15.682,0,0,0,15.528,15.831H225.176a15.246,15.246,0,0,0,8.858-2.831c2.782,1.793,8.482,2.831,12.017,2.831a17.7,17.7,0,0,0,4.821-.67C246.018,122.019,240.7,113.777,240.7,105Z" transform="translate(6640.888 755.907)" fill="none" stroke="#5f00ad" stroke-linecap="round" stroke-linejoin="round" stroke-width="8"/>
    <path id="路径_299" data-name="路径 299" d="M250.443,95.262V90.373a15.682,15.682,0,0,0-15.528-15.831H31.429A15.682,15.682,0,0,0,15.9,90.373v9.192A15.682,15.682,0,0,0,31.429,115.4H234.916a15.247,15.247,0,0,0,8.858-2.831c2.782,1.793,8.482,2.831,12.017,2.831a17.7,17.7,0,0,0,4.821-.67c-4.854-2.446-10.168-10.688-10.168-19.464" transform="translate(6634.388 762.407)" fill="#fff"/>
    <path id="路径_300" data-name="路径 300" d="M250.443,95.262V90.373a15.682,15.682,0,0,0-15.528-15.831H31.429A15.682,15.682,0,0,0,15.9,90.373v9.192A15.682,15.682,0,0,0,31.429,115.4H234.916a15.247,15.247,0,0,0,8.858-2.831c2.782,1.793,8.482,2.831,12.017,2.831a17.7,17.7,0,0,0,4.821-.67C255.758,112.28,250.443,104.037,250.443,95.262Z" transform="translate(6634.388 762.407)" fill="none" stroke="#f3f3f3" stroke-linecap="round" stroke-linejoin="round" stroke-width="4"/>
    <path id="路径_301" data-name="路径 301" d="M250.2,49.718c.037-1.348.063-20.24.063-21.251V23.236c0-9.355-7.074-16.938-15.8-16.938H31.326c-8.727,0-16.19,4.349-15.511,19.9l-.032,27.823" transform="translate(6634.475 808.052)" fill="#fff"/>
    <path id="路径_302" data-name="路径 302" d="M250.2,49.718c.037-1.348.063-20.24.063-21.251V23.236c0-9.355-7.074-16.938-15.8-16.938H31.326c-8.727,0-16.19,4.349-15.511,19.9l-.032,27.823" transform="translate(6634.475 808.052)" fill="none" stroke="#f3f3f3" stroke-linecap="round" stroke-linejoin="round" stroke-width="4"/>
  </g>
</svg>
