<svg xmlns="http://www.w3.org/2000/svg" width="334" height="726" viewBox="0 0 334 726">
  <g id="组_293" data-name="组 293" transform="translate(-5625.123 -484.403)">
    <path id="路径_303" data-name="路径 303" d="M319.774,728.38H44.1A16.663,16.663,0,0,1,27.492,711.76V48.667S17.045,49.656,6.381,28.2c0,0,15.463,12.216,21.111-5.2A16.663,16.663,0,0,1,44.1,6.38H319.774A16.663,16.663,0,0,1,336.381,23V711.76a16.663,16.663,0,0,1-16.607,16.621" transform="translate(5620.742 480.023)" fill="#fff"/>
    <path id="路径_304" data-name="路径 304" d="M319.774,728.38H44.1A16.663,16.663,0,0,1,27.492,711.76V48.667S17.045,49.656,6.381,28.2c0,0,15.463,12.216,21.111-5.2A16.663,16.663,0,0,1,44.1,6.38H319.774A16.663,16.663,0,0,1,336.381,23V711.76A16.663,16.663,0,0,1,319.774,728.38Z" transform="translate(5620.742 480.023)" fill="none" stroke="#00cde6" stroke-linecap="round" stroke-linejoin="round" stroke-width="4"/>
  </g>
</svg>
